<svg xmlns="http://www.w3.org/2000/svg" width="32" height="32" viewBox="0 0 32 32" shape-rendering="geometricPrecision">
  <path d="M29 2.5 25.8 13l-9.1 9.1-2.8-2.8 9.1-9.1z" fill="#07111f" stroke="#02060b" stroke-width="3.4" stroke-linejoin="round"/>
  <path d="M28.2 3.4 24.5 12 16.4 20.1l-2.5-2.5 8.1-8.1z" fill="#9fd8ee" stroke="#d9f6ff" stroke-width="1.1" stroke-linejoin="round"/>
  <path d="M28.2 3.4 22 9.5l2.5 2.5z" fill="#f4fdff"/>
  <path d="m16.4 20.1-2.5-2.5 8.1-8.1-5.1 8.6z" fill="#4c8fb5"/>
  <path d="m10.3 16.1 3.5-1.2 4.9 4.9-1.2 3.5-2.3-2.3-2.6 2.6-2.5-2.5 2.6-2.6z" fill="#f0bf45" stroke="#251507" stroke-width="2" stroke-linejoin="round"/>
  <path d="m12.6 19.4 2.7-2.7 1.8 1.8-2.7 2.7z" fill="#ff4b3e" stroke="#41100d" stroke-width="1"/>
  <path d="m11.5 21.4 2.1 2.1-5 5-2.1-2.1z" fill="#793d2b" stroke="#160b08" stroke-width="2"/>
  <path d="m9.9 23-1.1 1.1m2.5.3-1.1 1.1m2.5.3-1.1 1.1" stroke="#e8a65a" stroke-width="1"/>
  <path d="m7.4 26.1 2.6 2.6-2.1 1.7-2.2-2.2z" fill="#e8b43e" stroke="#1c1006" stroke-width="1.5"/>
</svg>
